<svg xmlns="http://www.w3.org/2000/svg" xmlns:xlink="http://www.w3.org/1999/xlink" width="500" zoomAndPan="magnify" viewBox="0 0 375 187.499995" height="250" preserveAspectRatio="xMidYMid meet" version="1.0"><defs><g/></defs><g fill="#9cdaff" fill-opacity="1"><g transform="translate(87.495194, 111.718328)"><g><path d="M 19.664062 0.875 C 25.953125 0.875 31.007812 -1.492188 34.101562 -5.417969 C 34.421875 -5.800781 34.292969 -6.164062 33.800781 -6.503906 L 28.042969 -10.34375 C 27.597656 -10.664062 27.210938 -10.578125 26.871094 -10.128906 C 25.25 -8.167969 22.753906 -6.996094 19.664062 -6.996094 C 14.246094 -6.996094 10.664062 -10.578125 10.664062 -16.378906 C 10.664062 -22.179688 14.246094 -25.761719 19.664062 -25.761719 C 22.753906 -25.761719 25.25 -24.589844 26.871094 -22.628906 C 27.210938 -22.179688 27.597656 -22.09375 28.042969 -22.414062 L 33.800781 -26.253906 C 34.292969 -26.59375 34.378906 -27 34.015625 -27.425781 C 30.878906 -31.308594 25.847656 -33.632812 19.664062 -33.632812 C 9 -33.632812 1.917969 -26.914062 1.917969 -16.378906 C 1.917969 -5.84375 9 0.875 19.664062 0.875 Z M 19.664062 0.875 "/></g></g></g><g fill="#9cdaff" fill-opacity="1"><g transform="translate(123.164736, 111.718328)"><g><path d="M 18.042969 -32.757812 C 17.378906 -34.101562 16.335938 -34.101562 15.675781 -32.757812 L 0.660156 -1.046875 C 0.382812 -0.425781 0.660156 0 1.300781 0 L 9 0 C 9.46875 0 9.832031 -0.257812 10.003906 -0.703125 L 11.066406 -3.453125 L 22.648438 -3.453125 L 23.714844 -0.703125 C 23.886719 -0.257812 24.246094 0 24.71875 0 L 32.414062 0 C 33.054688 0 33.332031 -0.425781 33.054688 -1.046875 Z M 16.867188 -18.234375 L 20.089844 -10.003906 L 13.628906 -10.003906 Z M 16.867188 -18.234375 "/></g></g></g><g fill="#9cdaff" fill-opacity="1"><g transform="translate(156.915416, 111.718328)"><g><path d="M 24.417969 -12.304688 C 27.640625 -13.988281 29.472656 -17.488281 29.472656 -22.222656 C 29.472656 -27.832031 26.957031 -32.757812 17.722656 -32.757812 L 4.117188 -32.757812 C 3.539062 -32.757812 3.242188 -32.457031 3.242188 -31.882812 L 3.242188 -0.875 C 3.242188 -0.296875 3.539062 0 4.117188 0 L 11.132812 0 C 11.707031 0 12.007812 -0.296875 12.007812 -0.875 L 12.007812 -11.175781 L 15.695312 -11.175781 L 20.964844 -0.660156 C 21.175781 -0.214844 21.496094 0 21.964844 0 L 29.921875 0 C 30.582031 0 30.835938 -0.425781 30.539062 -1.046875 Z M 16.207031 -25.335938 C 17.957031 -25.335938 20.75 -25.335938 20.75 -22.136719 C 20.75 -18.597656 17.421875 -18.597656 16.207031 -18.597656 L 12.007812 -18.597656 L 12.007812 -25.335938 Z M 16.207031 -25.335938 "/></g></g></g><g fill="#9cdaff" fill-opacity="1"><g transform="translate(189.32289, 111.718328)"><g><path d="M 11.089844 0 C 11.664062 0 11.964844 -0.296875 11.964844 -0.875 L 11.964844 -31.882812 C 11.964844 -32.457031 11.664062 -32.757812 11.089844 -32.757812 L 4.117188 -32.757812 C 3.539062 -32.757812 3.242188 -32.457031 3.242188 -31.882812 L 3.242188 -0.875 C 3.242188 -0.296875 3.539062 0 4.117188 0 Z M 11.089844 0 "/></g></g></g><g fill="#9cdaff" fill-opacity="1"><g transform="translate(204.524553, 111.718328)"><g><path d="M 10.832031 0 C 11.410156 0 11.707031 -0.296875 11.707031 -0.875 L 11.707031 -16.507812 L 29.835938 0 C 31.199219 1.257812 32.179688 0.703125 32.179688 -0.789062 L 32.179688 -31.882812 C 32.179688 -32.457031 31.882812 -32.757812 31.308594 -32.757812 L 24.632812 -32.757812 C 24.054688 -32.757812 23.757812 -32.457031 23.757812 -31.882812 L 23.757812 -16.804688 L 5.417969 -32.96875 C 4.203125 -34.035156 3.285156 -33.503906 3.285156 -32.011719 L 3.285156 -0.875 C 3.285156 -0.296875 3.582031 0 4.160156 0 Z M 10.832031 0 "/></g></g></g><g fill="#9cdaff" fill-opacity="1"><g transform="translate(239.980889, 111.718328)"><g><path d="M 19.664062 0.875 C 26.039062 0.875 31.179688 -1.492188 34.207031 -5.628906 C 34.421875 -5.886719 34.503906 -6.207031 34.503906 -6.589844 L 34.503906 -17.378906 C 34.503906 -17.957031 34.207031 -18.253906 33.632812 -18.253906 L 20.792969 -18.253906 C 20.21875 -18.253906 19.917969 -17.957031 19.917969 -17.378906 L 19.917969 -12.132812 C 19.917969 -11.582031 20.21875 -11.261719 20.792969 -11.261719 L 26.550781 -11.261719 L 26.550781 -9.46875 C 24.972656 -7.636719 22.585938 -6.546875 19.664062 -6.546875 C 14.246094 -6.546875 10.664062 -10.300781 10.664062 -16.378906 C 10.664062 -22.179688 14.246094 -25.761719 19.664062 -25.761719 C 22.753906 -25.761719 25.25 -24.589844 26.871094 -22.628906 C 27.210938 -22.179688 27.597656 -22.09375 28.042969 -22.414062 L 33.800781 -26.253906 C 34.292969 -26.59375 34.378906 -27 34.015625 -27.425781 C 30.878906 -31.308594 25.847656 -33.632812 19.664062 -33.632812 C 9 -33.632812 1.917969 -26.914062 1.917969 -16.378906 C 1.917969 -5.84375 9 0.875 19.664062 0.875 Z M 19.664062 0.875 "/></g></g></g><g fill="#9cdaff" fill-opacity="1"><g transform="translate(276.929673, 111.718328)"><g><path d="M 7.785156 0.53125 C 10.429688 0.53125 12.667969 -1.578125 12.667969 -4.371094 C 12.667969 -7.039062 10.535156 -9.253906 7.785156 -9.253906 C 5.074219 -9.253906 2.878906 -6.996094 2.878906 -4.371094 C 2.878906 -1.664062 5.117188 0.53125 7.785156 0.53125 Z M 7.785156 0.53125 "/></g></g></g><path stroke-linecap="butt" transform="matrix(0.748005, 0, 0, 0.748005, 81.420925, 71.808506)" fill="none" stroke-linejoin="miter" d="M 31.052605 51.167455 C 39.465606 51.167455 46.21794 48.002788 50.35394 42.759676 C 50.782162 42.242676 50.609829 41.762232 49.957051 41.302676 L 42.259495 36.174454 C 41.658939 35.746231 41.147162 35.86112 40.687606 36.456454 C 38.520384 39.078009 35.188606 40.649898 31.052605 40.649898 C 23.809383 40.649898 19.020604 35.86112 19.020604 28.10612 C 19.020604 20.351119 23.809383 15.557119 31.052605 15.557119 C 35.188606 15.557119 38.520384 17.129008 40.687606 19.750564 C 41.147162 20.351119 41.658939 20.460786 42.259495 20.037786 L 49.957051 14.904341 C 50.609829 14.444786 50.724718 13.906897 50.239051 13.337674 C 46.050829 8.146785 39.319384 5.039563 31.052605 5.039563 C 16.795938 5.039563 7.33327 14.021785 7.33327 28.10612 C 7.33327 42.190454 16.795938 51.167455 31.052605 51.167455 Z M 76.569497 6.20934 C 75.686942 4.412896 74.292608 4.412896 73.404831 6.20934 L 53.335829 48.603343 C 52.965051 49.428455 53.335829 49.997677 54.192274 49.997677 L 64.485274 49.997677 C 65.111941 49.997677 65.597608 49.658232 65.822163 49.057677 L 67.24783 45.381232 L 82.73172 45.381232 L 84.157387 49.057677 C 84.381942 49.658232 84.867609 49.997677 85.494276 49.997677 L 95.787277 49.997677 C 96.643721 49.997677 97.014499 49.428455 96.643721 48.603343 Z M 75.002831 25.625564 L 79.311164 36.628787 L 70.668386 36.628787 Z M 130.21739 33.547676 C 134.520501 31.296898 136.974946 26.623009 136.974946 20.293675 C 136.974946 12.794563 133.611835 6.20934 121.266501 6.20934 L 103.077499 6.20934 C 102.30461 6.20934 101.907721 6.606229 101.907721 7.373896 L 101.907721 48.833121 C 101.907721 49.600788 102.30461 49.997677 103.077499 49.997677 L 112.456611 49.997677 C 113.224278 49.997677 113.626389 49.600788 113.626389 48.833121 L 113.626389 35.06212 L 118.556167 35.06212 L 125.600945 49.115121 C 125.882945 49.715677 126.311168 49.997677 126.937834 49.997677 L 137.575502 49.997677 C 138.458057 49.997677 138.797502 49.428455 138.400613 48.603343 Z M 119.240278 16.131563 C 121.579834 16.131563 125.313723 16.131563 125.313723 20.403341 C 125.313723 25.139897 120.864389 25.139897 119.240278 25.139897 L 113.626389 25.139897 L 113.626389 16.131563 Z M 155.722725 49.997677 C 156.495614 49.997677 156.892503 49.600788 156.892503 48.833121 L 156.892503 7.373896 C 156.892503 6.606229 156.495614 6.20934 155.722725 6.20934 L 146.401058 6.20934 C 145.628169 6.20934 145.23128 6.606229 145.23128 7.373896 L 145.23128 48.833121 C 145.23128 49.600788 145.628169 49.997677 146.401058 49.997677 Z M 175.702949 49.997677 C 176.475838 49.997677 176.872727 49.600788 176.872727 48.833121 L 176.872727 27.933786 L 201.109062 49.997677 C 202.931617 51.684455 204.242395 50.942899 204.242395 48.942788 L 204.242395 7.373896 C 204.242395 6.606229 203.845506 6.20934 203.072617 6.20934 L 194.153061 6.20934 C 193.380172 6.20934 192.983283 6.606229 192.983283 7.373896 L 192.983283 27.531675 L 168.464948 5.922118 C 166.835615 4.496451 165.613615 5.211896 165.613615 7.206785 L 165.613615 48.833121 C 165.613615 49.600788 166.010504 49.997677 166.77817 49.997677 Z M 234.907286 51.167455 C 243.435176 51.167455 250.302398 48.002788 254.354843 42.472454 C 254.636843 42.13301 254.751732 41.704787 254.751732 41.187787 L 254.751732 26.764009 C 254.751732 25.996342 254.354843 25.594231 253.581954 25.594231 L 236.421731 25.594231 C 235.648842 25.594231 235.251953 25.996342 235.251953 26.764009 L 235.251953 33.777454 C 235.251953 34.519009 235.648842 34.947231 236.421731 34.947231 L 244.119287 34.947231 L 244.119287 37.339009 C 242.009509 39.793454 238.813509 41.245232 234.907286 41.245232 C 227.669286 41.245232 222.875285 36.231898 222.875285 28.10612 C 222.875285 20.351119 227.669286 15.557119 234.907286 15.557119 C 239.043287 15.557119 242.380287 17.129008 244.547509 19.750564 C 245.001843 20.351119 245.51362 20.460786 246.114176 20.037786 L 253.811732 14.904341 C 254.469732 14.444786 254.579399 13.906897 254.098954 13.337674 C 249.90551 8.146785 243.179287 5.039563 234.907286 5.039563 C 220.655841 5.039563 211.187951 14.021785 211.187951 28.10612 C 211.187951 42.190454 220.655841 51.167455 234.907286 51.167455 Z M 268.423511 50.713121 C 271.958956 50.713121 274.951289 47.887899 274.951289 44.15401 C 274.951289 40.592454 272.105178 37.626232 268.423511 37.626232 C 264.804511 37.626232 261.869621 40.649898 261.869621 44.15401 C 261.869621 47.778232 264.861955 50.713121 268.423511 50.713121 Z M 268.423511 50.713121 " stroke="#38b6ff" stroke-width="2.737317" stroke-opacity="1" stroke-miterlimit="4"/></svg>